<svg width="32" height="60" viewBox="0 0 32 60" fill="#212121" xmlns="http://www.w3.org/2000/svg">
<path fill-rule="evenodd" clip-rule="evenodd" d="M31.0931 1.40712C31.3026 1.61612 31.4689 1.86441 31.5823 2.13776C31.6957 2.41112 31.7541 2.70416 31.7541 3.00012C31.7541 3.29607 31.6957 3.58911 31.5823 3.86247C31.4689 4.13582 31.3026 4.38411 31.0931 4.59312L5.68161 30.0001L31.0931 55.4071C31.5156 55.8296 31.753 56.4026 31.753 57.0001C31.753 57.5976 31.5156 58.1706 31.0931 58.5931C30.6706 59.0156 30.0976 59.253 29.5001 59.253C28.9026 59.253 28.3296 59.0156 27.9071 58.5931L0.907114 31.5931C0.69758 31.3841 0.531336 31.1358 0.417907 30.8625C0.304478 30.5891 0.246094 30.2961 0.246094 30.0001C0.246094 29.7042 0.304478 29.4111 0.417907 29.1378C0.531336 28.8644 0.69758 28.6161 0.907114 28.4071L27.9071 1.40712C28.1161 1.19758 28.3644 1.03134 28.6378 0.91791C28.9111 0.804481 29.2042 0.746094 29.5001 0.746094C29.7961 0.746094 30.0891 0.804481 30.3625 0.91791C30.6358 1.03134 30.8841 1.19758 31.0931 1.40712Z" fill="7b7b7b"/>
</svg>
