<svg width="32" height="60" viewBox="0 0 36 65" fill="#212121" xmlns="http://www.w3.org/2000/svg">
<path fill-rule="evenodd" clip-rule="evenodd" d="M1.64921 1.5247C1.87563 1.29771 2.14461 1.11761 2.44075 0.994728C2.73688 0.871846 3.05435 0.808594 3.37496 0.808594C3.69558 0.808594 4.01304 0.871846 4.30918 0.994728C4.60531 1.11761 4.87429 1.29771 5.10071 1.5247L34.3507 30.7747C34.5777 31.0011 34.7578 31.2701 34.8807 31.5662C35.0036 31.8624 35.0668 32.1798 35.0668 32.5005C35.0668 32.8211 35.0036 33.1385 34.8807 33.4347C34.7578 33.7308 34.5777 33.9998 34.3507 34.2262L5.10071 63.4762C4.64301 63.9339 4.02224 64.191 3.37496 64.191C2.72768 64.191 2.10691 63.9339 1.64921 63.4762C1.19151 63.0185 0.934382 62.3977 0.934382 61.7505C0.934382 61.1032 1.19151 60.4824 1.64921 60.0247L29.1783 32.5005L1.64921 4.9762C1.42222 4.74978 1.24212 4.4808 1.11924 4.18467C0.996356 3.88853 0.933105 3.57107 0.933105 3.25045C0.933105 2.92984 0.996356 2.61237 1.11924 2.31624C1.24212 2.0201 1.42222 1.75112 1.64921 1.5247Z" fill="7b7b7b"/>
</svg>
